<svg xmlns="http://www.w3.org/2000/svg" xmlns:xlink="http://www.w3.org/1999/xlink" viewBox="0 0 272.89 212.95"><defs><clipPath id="a" transform="translate(-815.25 -423.7)"><rect width="1920" height="1080" style="fill:none"/></clipPath></defs><title>logo</title><path d="M832.82,566.51V572h-11v5.92h8.23v5.32h-8.23v11.36h-6.58V566.51Z" transform="translate(-815.25 -423.7)" style="fill:#c80000"/><path d="M842.74,566.51v16.8a5.69,5.69,0,0,0,1.2,3.88,4.42,4.42,0,0,0,3.5,1.36,4.54,4.54,0,0,0,3.53-1.36,5.59,5.59,0,0,0,1.23-3.88v-16.8h6.58v16.76a12.28,12.28,0,0,1-1.54,6.36,10,10,0,0,1-4.13,3.92,12.59,12.59,0,0,1-5.79,1.32,12.35,12.35,0,0,1-5.71-1.3,9.51,9.51,0,0,1-4-3.92,13,13,0,0,1-1.46-6.38V566.51Z" transform="translate(-815.25 -423.7)" style="fill:#c80000"/><path d="M887.54,594.59H881l-11-17.32v17.32h-6.58V566.51H870l11,17.4v-17.4h6.58Z" transform="translate(-815.25 -423.7)" style="fill:#c80000"/><path d="M922.88,566.51v28.08H916.3V577.75l-6,16.84H905l-6.08-16.88v16.88h-6.57V566.51h7.76L907.65,586l7.5-19.44Z" transform="translate(-815.25 -423.7)" style="fill:#c80000"/><path d="M934.18,566.51v28.08h-6.57V566.51Z" transform="translate(-815.25 -423.7)" style="fill:#c80000"/><path d="M951.56,593.87a8.82,8.82,0,0,1-3.75-3,8.35,8.35,0,0,1-1.48-4.72h7a3.59,3.59,0,0,0,1,2.38,3.29,3.29,0,0,0,2.3.82,3.54,3.54,0,0,0,2.31-.7,2.38,2.38,0,0,0,.85-1.94,2.33,2.33,0,0,0-.68-1.72,5.06,5.06,0,0,0-1.65-1.12,23.36,23.36,0,0,0-2.79-1,29.53,29.53,0,0,1-4.26-1.68,7.91,7.91,0,0,1-2.85-2.48,7.16,7.16,0,0,1-1.19-4.28,7.47,7.47,0,0,1,2.73-6.14,10.91,10.91,0,0,1,7.11-2.22,11,11,0,0,1,7.19,2.22,8.07,8.07,0,0,1,2.93,6.18h-7.12a2.93,2.93,0,0,0-1-2.14,3.31,3.31,0,0,0-2.27-.78,2.75,2.75,0,0,0-1.92.66,2.41,2.41,0,0,0-.73,1.9,2.38,2.38,0,0,0,1.23,2.12,20.39,20.39,0,0,0,3.84,1.64,33.87,33.87,0,0,1,4.25,1.76,8.19,8.19,0,0,1,2.83,2.44,6.73,6.73,0,0,1,1.19,4.12,8.16,8.16,0,0,1-4.58,7.48,11.27,11.27,0,0,1-5.26,1.16A13.51,13.51,0,0,1,951.56,593.87Z" transform="translate(-815.25 -423.7)" style="fill:#c80000"/><path d="M990.17,566.51V572H983v22.6h-6.57V572h-7.15v-5.48Z" transform="translate(-815.25 -423.7)" style="fill:#c80000"/><path d="M998.22,593a13.6,13.6,0,0,1-5-5.14,14.86,14.86,0,0,1-1.86-7.42,14.71,14.71,0,0,1,1.86-7.4,14,14,0,0,1,19-5.12,13.23,13.23,0,0,1,5,5.12,15.92,15.92,0,0,1,0,14.82,13.43,13.43,0,0,1-5,5.14,14.12,14.12,0,0,1-13.94,0Zm12.15-6.64a10,10,0,0,0,0-11.86,7.2,7.2,0,0,0-10.38,0,10.09,10.09,0,0,0,0,11.9,7.15,7.15,0,0,0,10.38,0Z" transform="translate(-815.25 -423.7)" style="fill:#c80000"/><path d="M1036.42,594.59l-5.61-10.6h-1.58v10.6h-6.57V566.51h11a11.66,11.66,0,0,1,5.44,1.16,7.81,7.81,0,0,1,3.37,3.18,9.15,9.15,0,0,1,1.11,4.5,8.56,8.56,0,0,1-1.52,5,8.21,8.21,0,0,1-4.48,3.12l6.23,11.12Zm-7.19-15.44h4.08a3.66,3.66,0,0,0,2.71-.92,3.57,3.57,0,0,0,.9-2.6,3.44,3.44,0,0,0-.9-2.52,3.62,3.62,0,0,0-2.71-.92h-4.08Z" transform="translate(-815.25 -423.7)" style="fill:#c80000"/><path d="M1054.3,572v5.68h8.81V583h-8.81v6.16h10v5.48h-16.53V566.51h16.53V572Z" transform="translate(-815.25 -423.7)" style="fill:#c80000"/><path d="M1073,593.87a8.76,8.76,0,0,1-3.75-3,8.27,8.27,0,0,1-1.48-4.72h7a3.59,3.59,0,0,0,1,2.38,3.27,3.27,0,0,0,2.3.82,3.54,3.54,0,0,0,2.31-.7,2.41,2.41,0,0,0,.85-1.94,2.33,2.33,0,0,0-.68-1.72,5.28,5.28,0,0,0-1.65-1.12,23.36,23.36,0,0,0-2.79-1,30.19,30.19,0,0,1-4.27-1.68,8,8,0,0,1-2.84-2.48,7.09,7.09,0,0,1-1.19-4.28,7.47,7.47,0,0,1,2.73-6.14,10.91,10.91,0,0,1,7.11-2.22,11,11,0,0,1,7.19,2.22,8.07,8.07,0,0,1,2.92,6.18h-7.11a2.93,2.93,0,0,0-1-2.14,3.31,3.31,0,0,0-2.27-.78,2.73,2.73,0,0,0-1.92.66,2.41,2.41,0,0,0-.73,1.9,2.38,2.38,0,0,0,1.23,2.12,20.39,20.39,0,0,0,3.84,1.64,34.51,34.51,0,0,1,4.25,1.76,8.19,8.19,0,0,1,2.83,2.44,6.73,6.73,0,0,1,1.19,4.12,8.35,8.35,0,0,1-1.17,4.36,8.47,8.47,0,0,1-3.41,3.12,11.29,11.29,0,0,1-5.27,1.16A13.5,13.5,0,0,1,1073,593.87Z" transform="translate(-815.25 -423.7)" style="fill:#c80000"/><path d="M884.9,630h-1.12l-10.3-15.7V630h-1.13V612.47h1.13l10.3,15.66V612.47h1.12Z" transform="translate(-815.25 -423.7)" style="fill:#00732d"/><path d="M889.18,613.14a1,1,0,0,1,0-1.42.9.9,0,0,1,.67-.27.94.94,0,0,1,.68.27,1,1,0,0,1-.68,1.68A.94.94,0,0,1,889.18,613.14Zm1.22,3.28V630h-1.12V616.42Z" transform="translate(-815.25 -423.7)" style="fill:#00732d"/><path d="M904,617.29a5.51,5.51,0,0,1,2.1,2.66v-3.53h1.12v14a6.4,6.4,0,0,1-.82,3.29,5.76,5.76,0,0,1-2.23,2.18,6.38,6.38,0,0,1-3.12.76,7,7,0,0,1-4.23-1.23,5.64,5.64,0,0,1-2.2-3.29h1.13a4.74,4.74,0,0,0,1.87,2.58,5.86,5.86,0,0,0,3.43,1,5.26,5.26,0,0,0,2.57-.63,4.62,4.62,0,0,0,1.81-1.83,5.65,5.65,0,0,0,.67-2.79v-4a5.65,5.65,0,0,1-2.12,2.69,6.15,6.15,0,0,1-3.63,1.06,6.67,6.67,0,0,1-3.39-.86,6.05,6.05,0,0,1-2.33-2.45,7.78,7.78,0,0,1-.83-3.69,7.67,7.67,0,0,1,.83-3.67A5.94,5.94,0,0,1,897,617.1a6.67,6.67,0,0,1,3.39-.85A6.28,6.28,0,0,1,904,617.29Zm1.36,2.77a5.22,5.22,0,0,0-2-2.1,5.61,5.61,0,0,0-2.85-.74,5.7,5.7,0,0,0-2.9.72,4.8,4.8,0,0,0-2,2.06,7.66,7.66,0,0,0,0,6.4,4.9,4.9,0,0,0,2,2.07,6,6,0,0,0,5.75,0,5.09,5.09,0,0,0,2-2.1,6.67,6.67,0,0,0,.73-3.16A6.53,6.53,0,0,0,905.39,620.06Z" transform="translate(-815.25 -423.7)" style="fill:#00732d"/><path d="M923.53,623.65H911.8a6.15,6.15,0,0,0,.8,3.07,4.83,4.83,0,0,0,2,1.88,5.71,5.71,0,0,0,2.67.62,5.51,5.51,0,0,0,3.35-1,4.28,4.28,0,0,0,1.7-2.69h1.18a5.46,5.46,0,0,1-2.05,3.36,6.6,6.6,0,0,1-4.18,1.29,6.73,6.73,0,0,1-3.4-.85,6,6,0,0,1-2.35-2.44,8.55,8.55,0,0,1,0-7.41,5.85,5.85,0,0,1,2.34-2.41,6.88,6.88,0,0,1,3.42-.84,6.61,6.61,0,0,1,3.39.84,5.69,5.69,0,0,1,2.19,2.22,6.2,6.2,0,0,1,.75,3C923.58,622.9,923.56,623.35,923.53,623.65Zm-1.72-4a4.55,4.55,0,0,0-1.93-1.86,5.83,5.83,0,0,0-2.65-.61,5.76,5.76,0,0,0-2.64.61,4.9,4.9,0,0,0-2,1.86,6.08,6.08,0,0,0-.81,3.05h10.65A5.58,5.58,0,0,0,921.81,619.67Z" transform="translate(-815.25 -423.7)" style="fill:#00732d"/><path d="M929.88,616.94a6,6,0,0,1,3.25-.79v1.18h-.38a4.9,4.9,0,0,0-3.32,1.13,4.64,4.64,0,0,0-1.33,3.71V630H927V616.42h1.12v2.8A4.09,4.09,0,0,1,929.88,616.94Z" transform="translate(-815.25 -423.7)" style="fill:#00732d"/><path d="M935.7,613.14a1.07,1.07,0,0,1,0-1.42,1,1,0,0,1,1.35,0,1,1,0,0,1,0,1.42,1,1,0,0,1-1.35,0Zm1.23,3.28V630H935.8V616.42Z" transform="translate(-815.25 -423.7)" style="fill:#00732d"/><path d="M941.19,619.53a5.91,5.91,0,0,1,2.32-2.43,6.67,6.67,0,0,1,3.39-.85,6.21,6.21,0,0,1,3.65,1,5.58,5.58,0,0,1,2.1,2.67v-3.55h1.12V630h-1.12v-3.58a5.57,5.57,0,0,1-2.11,2.72,6.16,6.16,0,0,1-3.64,1.06,6.67,6.67,0,0,1-3.39-.86,6,6,0,0,1-2.32-2.45,7.79,7.79,0,0,1-.84-3.69A7.68,7.68,0,0,1,941.19,619.53Zm10.72.53a5.22,5.22,0,0,0-2-2.1,5.61,5.61,0,0,0-2.85-.74,5.7,5.7,0,0,0-2.9.72A4.92,4.92,0,0,0,942.2,620a7.66,7.66,0,0,0,0,6.4,5,5,0,0,0,2,2.07,6,6,0,0,0,5.75,0,5.09,5.09,0,0,0,2-2.1,7.12,7.12,0,0,0,0-6.3Z" transform="translate(-815.25 -423.7)" style="fill:#00732d"/><path d="M966.05,629.05h6.53v1h-7.66V612.45h1.13Z" transform="translate(-815.25 -423.7)" style="fill:#00732d"/><path d="M975,613.14a1.07,1.07,0,0,1,0-1.42.94.94,0,0,1,.68-.27.9.9,0,0,1,.67.27,1,1,0,0,1-.67,1.68A1,1,0,0,1,975,613.14Zm1.23,3.28V630h-1.13V616.42Z" transform="translate(-815.25 -423.7)" style="fill:#00732d"/><path d="M1000.22,617.64a6,6,0,0,1,1.48,4.41v8h-1.1v-7.87a5.4,5.4,0,0,0-1.16-3.72,4.08,4.08,0,0,0-3.19-1.28,4.27,4.27,0,0,0-3.38,1.45,6.15,6.15,0,0,0-1.27,4.2V630h-1.1v-7.87a5.4,5.4,0,0,0-1.16-3.72,4.08,4.08,0,0,0-3.19-1.28,4.27,4.27,0,0,0-3.38,1.45,6.15,6.15,0,0,0-1.27,4.2V630h-1.13V616.42h1.13v3a4.54,4.54,0,0,1,1.86-2.42,5.46,5.46,0,0,1,3-.81,5.31,5.31,0,0,1,3.19,1,4.9,4.9,0,0,1,1.84,2.84,4.73,4.73,0,0,1,1.85-2.84,5.49,5.49,0,0,1,3.22-1A5.12,5.12,0,0,1,1000.22,617.64Z" transform="translate(-815.25 -423.7)" style="fill:#00732d"/><path d="M1005.6,613.14a1,1,0,0,1,0-1.42,1,1,0,0,1,1.35,0,1.07,1.07,0,0,1,0,1.42,1,1,0,0,1-1.35,0Zm1.22,3.28V630h-1.12V616.42Z" transform="translate(-815.25 -423.7)" style="fill:#00732d"/><path d="M1012.62,617.4v9a3,3,0,0,0,.55,2.06,2.72,2.72,0,0,0,2,.56h1.53v1H1015a3.53,3.53,0,0,1-2.61-.84,3.84,3.84,0,0,1-.84-2.78v-9h-2v-1h2V613h1.12v3.45h4v1Z" transform="translate(-815.25 -423.7)" style="fill:#00732d"/><path d="M1031.65,623.65h-11.73a6.25,6.25,0,0,0,.8,3.07,4.83,4.83,0,0,0,2,1.88,5.76,5.76,0,0,0,2.67.62,5.49,5.49,0,0,0,3.35-1,4.28,4.28,0,0,0,1.7-2.69h1.18a5.46,5.46,0,0,1-2,3.36,6.58,6.58,0,0,1-4.18,1.29,6.76,6.76,0,0,1-3.4-.85,6,6,0,0,1-2.35-2.44,8.55,8.55,0,0,1,0-7.41,5.85,5.85,0,0,1,2.34-2.41,6.88,6.88,0,0,1,3.42-.84,6.61,6.61,0,0,1,3.39.84,5.69,5.69,0,0,1,2.19,2.22,6.2,6.2,0,0,1,.75,3C1031.7,622.9,1031.68,623.35,1031.65,623.65Zm-1.71-4a4.57,4.57,0,0,0-1.94-1.86,5.83,5.83,0,0,0-2.65-.61,5.76,5.76,0,0,0-2.64.61,4.82,4.82,0,0,0-2,1.86,6.19,6.19,0,0,0-.82,3.05h10.65A5.67,5.67,0,0,0,1029.94,619.67Z" transform="translate(-815.25 -423.7)" style="fill:#00732d"/><path d="M1035.24,619.53a5.85,5.85,0,0,1,2.32-2.43,6.67,6.67,0,0,1,3.39-.85,6.27,6.27,0,0,1,3.6,1,5.61,5.61,0,0,1,2.15,2.68V611.5h1.12V630h-1.12v-3.6a5.61,5.61,0,0,1-2.1,2.74,6.15,6.15,0,0,1-3.65,1.06,6.67,6.67,0,0,1-3.39-.86,6,6,0,0,1-2.32-2.45,7.79,7.79,0,0,1-.84-3.69A7.68,7.68,0,0,1,1035.24,619.53Zm10.72.53a5.22,5.22,0,0,0-2-2.1,5.61,5.61,0,0,0-2.85-.74,5.7,5.7,0,0,0-2.9.72,4.86,4.86,0,0,0-2,2.06,7.66,7.66,0,0,0,0,6.4,4.9,4.9,0,0,0,2,2.07,6,6,0,0,0,5.75,0,5.09,5.09,0,0,0,2-2.1,7.12,7.12,0,0,0,0-6.3Z" transform="translate(-815.25 -423.7)" style="fill:#00732d"/><g style="clip-path:url(#a)"><path d="M972.49,534.37a5.47,5.47,0,0,1,5.77,5.91c-.08,4.83-5.35,9.83-10.24,9.69-3.62-.1-5.82-2.35-5.77-5.91.08-4.91,5.19-9.75,10.24-9.69" transform="translate(-815.25 -423.7)" style="fill:#00732d"/><path d="M924.75,550a5.47,5.47,0,0,1-5.8-5.86c.06-5,5-9.74,10.13-9.74,3.58,0,5.89,2.29,5.85,5.81-.06,4.82-5.29,9.85-10.18,9.79" transform="translate(-815.25 -423.7)" style="fill:#00732d"/><path d="M904.74,514.51h93.8c6,0,6.27-.3,6.93-7.32H942.6c-.06-.51-.13-1-.2-1.53a32.35,32.35,0,0,1,4.54-.62c21.47,0,42.95,0,64.42,0,1.92,0,4.34.51,4.09-3.58H981.77l0-1.33H1022c-2.76,8.66-5.39,17.2-8.31,25.65-.29.84-2.37,1.5-3.62,1.51-19.72.09-39.44.06-59.16.06-12.79,0-25.57-.07-38.35.07-2.74,0-4.27-.62-4.91-3.44-.69-3-1.8-5.92-2.9-9.44" transform="translate(-815.25 -423.7)" style="fill:#00732d"/><path d="M954.62,475.7h75.12c-2.19,6.86-4,12.9-6.15,18.84-.28.79-2.15,1.43-3.29,1.44-17.66.08-35.31,0-53,0a15.23,15.23,0,0,1-2.79-.53c0-.39,0-.77.05-1.16,1.37-.12,2.75-.33,4.12-.34,12.64,0,25.28-.06,37.92.06,3.21,0,4.91-1,4.68-5.1H936.58c2.09-6.91,4-13.28,6.19-20.48" transform="translate(-815.25 -423.7)" style="fill:#00732d"/><path d="M948.45,451.35c.79-3.43,2.28-6.69,3.09-10.11.72-3.09,2.31-4,5.42-4,24.86.11,49.73.06,74.59.06h11.06c-1.44,4.31-2.53,8.13-4.06,11.77-.32.76-2.27,1.18-3.47,1.18-22.68.09-45.37.18-68,0" transform="translate(-815.25 -423.7)" style="fill:#00732d"/><path d="M889.36,488.93,901.7,527.4c-4.26,0-8,.12-11.81-.08a3.48,3.48,0,0,1-2.57-1.83c-5.3-16.25-10.47-32.54-15.81-49.26h60.81c-1.27,3.95-2.33,7.79-3.83,11.46-.31.75-2.22,1.19-3.39,1.2-10.07.09-20.13.05-30.19,0h-5.55" transform="translate(-815.25 -423.7)" style="fill:#c80000"/><path d="M829,423.75h16.31c6.53,0,13.06.1,19.58-.05,2.56-.06,3.85.74,4.69,3.26,3.41,10.31,3.49,10.27,14.51,10.26q28.34,0,56.68,0c1.18,0,2.36.13,4,.22-1.24,4-2.18,7.62-3.61,11.07-.39,1-2.24,1.83-3.43,1.84-23.78.1-47.57.05-71.36.12-2.25,0-3.66-.58-4.1-2.87a2,2,0,0,0-.13-.39c-1.18-3.31-1.45-8-3.8-9.55-2.73-1.77-7.28-.8-11-.89s-7.62.11-11.41-.09c-1.12-.05-2.83-.74-3.17-1.58-1.41-3.5-2.39-7.16-3.73-11.36" transform="translate(-815.25 -423.7)" style="fill:#c80000"/></g></svg>
